<?xml version="1.0" encoding="UTF-8"?>
<svg width="20px" height="20px" viewBox="0 0 20 20" version="1.1" xmlns="http://www.w3.org/2000/svg" xmlns:xlink="http://www.w3.org/1999/xlink">
    <defs></defs>
    <g id="Mobile" stroke="none" stroke-width="1" fill="none" fill-rule="evenodd">
        <g id="14-mobile-otp-copy-3" transform="translate(-47.000000, -280.000000)" fill="#CBCBCB">
            <g id="text-input-1-copy" transform="translate(47.000000, 280.000000)">
                <g id="portrait">
                    <path d="M10,10.2222222 C11.3333333,10.2222222 12.4444444,9.11111111 12.4444444,7.77777778 C12.4444444,6.44444444 11.3333333,5.33333333 10,5.33333333 C8.66666667,5.33333333 7.55555556,6.44444444 7.55555556,7.77777778 C7.55555556,9.11111111 8.66666667,10.2222222 10,10.2222222 L10,10.2222222 Z M15,14.6666667 C15,13 11.6666667,12.2222222 10,12.2222222 C8.33333333,12.2222222 5,13.1111111 5,14.6666667 L5,15.5555556 L15,15.5555556 L15,14.6666667 L15,14.6666667 Z M17.7777778,0 L2.22222222,0 C1,0 0,1 0,2.22222222 L0,17.7777778 C0,19 1,20 2.22222222,20 L17.7777778,20 C19,20 20,19 20,17.7777778 L20,2.22222222 C20,1 19,0 17.7777778,0 L17.7777778,0 Z M17.7777778,17.7777778 L2.22222222,17.7777778 L2.22222222,2.22222222 L17.7777778,2.22222222 L17.7777778,17.7777778 L17.7777778,17.7777778 Z" id="Shape"></path>
                </g>
            </g>
        </g>
    </g>
</svg>