<?xml version="1.0" encoding="utf-8"?>
<svg width='500px' height='500px' xmlns="http://www.w3.org/2000/svg" viewBox="0 0 200 200" preserveAspectRatio="xMidYMid" class="uil-ring-alt">
	<rect x="0" y="0" width="100" height="100" fill="none" class="bk">
		</rect>





		<circle cx="45" cy="45" r="40" stroke="#ebebeb" fill="none" stroke-width="10" stroke-linecap="round">
		</circle>
		


	<circle cx="45" cy="45" r="40" stroke="#21CE3E" fill="none" stroke-width="6" stroke-linecap="round">
		<animate attributeName="stroke-dashoffset" dur="2s" repeatCount="indefinite" from="0" to="502"></animate>
		<animate attributeName="stroke-dasharray" dur="2s" repeatCount="indefinite" values="150.6 100.4;1 250;150.6 100.4"></animate>
	</circle>

			<g transform="scale(0.18) translate(50,65)">
			<path id="path10" d="M183.800 8.436 C 164.850 10.399,144.833 15.452,131.088 21.742 C 129.817 22.324,128.701 22.800,128.608 22.800 C 128.183 22.800,119.414 27.188,116.049 29.085 C 113.986 30.248,112.249 31.200,112.190 31.200 C 111.403 31.200,93.042 43.554,92.000 44.784 C 91.890 44.914,90.990 45.641,90.000 46.400 C 89.010 47.159,88.110 47.874,88.000 47.990 C 87.890 48.105,86.540 49.266,85.000 50.569 C 83.460 51.872,79.140 56.012,75.400 59.769 L 68.600 66.600 149.500 66.701 C 193.995 66.757,230.400 66.872,230.400 66.958 C 230.400 67.044,219.629 85.089,206.465 107.057 C 193.300 129.026,160.697 183.450,134.013 228.000 C 107.329 272.550,84.881 309.990,84.128 311.200 L 82.761 313.400 84.480 314.950 C 100.076 329.007,122.690 341.988,143.800 349.002 C 193.389 365.477,248.982 359.259,291.600 332.471 C 304.336 324.466,314.713 316.136,325.312 305.408 L 331.247 299.400 250.051 299.200 L 168.855 299.000 180.368 280.000 C 186.700 269.550,195.807 254.520,200.605 246.600 C 205.404 238.680,211.076 229.320,213.210 225.800 C 215.343 222.280,220.685 213.460,225.081 206.200 C 241.603 178.910,269.174 133.397,275.724 122.600 C 279.461 116.440,283.004 110.590,283.598 109.600 C 284.192 108.610,288.334 101.770,292.801 94.400 C 297.268 87.030,304.720 74.723,309.360 67.051 L 317.796 53.103 315.998 51.524 C 290.020 28.715,259.664 14.763,224.400 9.425 C 215.473 8.073,192.663 7.518,183.800 8.436 M336.717 74.879 C 336.387 75.386,332.196 82.280,327.404 90.200 C 322.613 98.120,316.943 107.480,314.804 111.000 C 312.665 114.520,307.263 123.430,302.798 130.800 C 298.334 138.170,292.663 147.530,290.196 151.600 C 287.730 155.670,281.787 165.480,276.991 173.400 C 272.194 181.320,264.941 193.290,260.873 200.000 C 256.805 206.710,252.993 213.010,252.401 214.000 C 251.809 214.990,248.213 220.930,244.410 227.200 C 240.607 233.470,235.103 242.560,232.178 247.400 C 229.254 252.240,224.782 259.620,222.241 263.800 L 217.621 271.400 284.110 271.503 C 320.680 271.559,350.800 271.529,351.044 271.437 C 352.344 270.943,360.613 254.183,363.692 245.800 C 366.486 238.196,367.252 235.887,368.763 230.513 C 379.554 192.124,376.541 147.614,360.808 113.000 C 356.705 103.974,355.447 101.563,350.058 92.400 C 347.081 87.338,339.991 77.027,337.598 74.279 C 337.445 74.103,337.048 74.373,336.717 74.879 M48.122 95.100 C 47.983 95.485,47.552 96.259,47.164 96.821 C 41.148 105.522,32.603 127.912,28.471 145.800 C 24.397 163.433,23.489 186.011,26.048 206.000 C 28.757 227.156,36.062 249.419,46.195 267.400 C 52.096 277.872,62.234 292.670,63.259 292.307 C 63.426 292.248,70.520 280.590,79.024 266.400 C 94.560 240.478,114.859 206.594,157.505 135.400 C 170.156 114.280,180.857 96.415,181.286 95.700 L 182.065 94.400 115.220 94.400 C 51.921 94.400,48.361 94.437,48.122 95.100 "  stroke="none" fill="#21CE3E" fill-rule="evenodd">
				
			</path>
			</g>

		<!--img src="logo-icon copy.png" size="100px"/-->	

</svg>




