<?xml version="1.0" encoding="UTF-8"?>
<svg width="108px" height="35px" viewBox="0 0 108 35" version="1.1" xmlns="http://www.w3.org/2000/svg" xmlns:xlink="http://www.w3.org/1999/xlink">
    <!-- Generator: Sketch 55.2 (78181) - https://sketchapp.com -->
    <title>Artboard Copy</title>
    <desc>Created with Sketch.</desc>
    <g id="Artboard-Copy" stroke="none" stroke-width="1" fill="none" fill-rule="evenodd">
        <g id="Group" transform="translate(0.091384, 0.000000)" fill="#27C229" fill-rule="nonzero">
            <path d="M3.75225013,8.58642298 L18.2822762,8.58642298 L5.28749817,30.7013055 C5.28749817,30.7013055 16.1886731,41.0276762 27.8483337,29.3469974 L13.2269238,29.2556136 L26.4026418,7.14073107 C26.4026418,7.14073107 15.6284903,-3.19020888 3.75225013,8.58642298 Z M2.21791593,10.7522193 L14.2202658,10.7522193 L3.57131018,28.9814621 C3.57131018,28.9814621 -3.46707102,21.310705 2.21791593,10.7522193 L2.21791593,10.7522193 Z M28.2083859,8.85691906 L17.6499003,26.7261097 L29.5617802,26.9088773 C29.5617802,26.9088773 35.1663493,18.3060052 28.2083859,8.85691906 L28.2083859,8.85691906 Z" id="Shape_3_copy"></path>
            <polygon id="Path" points="51.5286209 25.0601828 36.1240517 25.0601828 36.1240517 23.7689295 44.1448089 10.3693211 36.1240517 10.3693211 36.1240517 5.81932115 51.5286209 5.81932115 51.5286209 7.22663185 43.4868454 20.5101828 51.5286209 20.5101828"></polygon>
            <path d="M54.9226154,15.4201044 C54.9226154,12.5926893 55.822137,10.2776327 57.6211796,8.47493473 C59.4202223,6.67223673 61.7337558,5.77241079 64.5617802,5.77544921 C67.3904138,5.77544921 69.6399786,6.67528285 71.3104747,8.47493473 C72.9809708,10.2745866 73.8162188,12.5896432 73.8162188,15.4201044 L73.8162188,17.3483029 L60.5134773,17.3483029 C60.6414146,18.3766754 61.0913276,19.1799391 61.8632162,19.758094 C62.6351048,20.3362489 63.5346261,20.625631 64.5617802,20.6262402 C66.3620413,20.6262402 67.9688733,20.112054 69.3822762,19.0836815 L72.4673937,22.1669713 C71.0527723,24.0945605 68.4175678,25.0583551 64.5617802,25.0583551 C61.734365,25.0583551 59.4208315,24.1585292 57.6211796,22.3588773 C55.8215278,20.5592254 54.9220064,18.2463011 54.9226154,15.4201044 Z M67.2594303,11.0821149 C66.4881509,10.5033507 65.588325,10.2142733 64.5599525,10.2148815 C63.53158,10.2154917 62.6320587,10.5045692 61.8613885,11.0821149 C61.0901091,11.6602698 60.7044695,12.4635335 60.7044695,13.491906 L68.4163522,13.491906 C68.4175678,12.4635335 68.0325373,11.6602698 67.261258,11.0821149 L67.2594303,11.0821149 Z" id="Shape"></path>
            <path d="M88.9512057,6.32010444 C90.0016975,6.79019528 90.9562452,7.45041636 91.766741,8.26749347 L88.7583859,11.6578329 C87.8847567,10.6172759 86.7924155,10.0966928 85.4813624,10.0960836 C84.1824938,10.0960836 83.3146522,10.3370322 82.8778376,10.8189295 C82.441023,11.3008268 82.441023,11.737946 82.8778376,12.1302872 C83.3146522,12.5220191 84.1824938,12.8464317 85.4813624,13.1035248 C87.3955487,13.2862924 88.9633903,13.8327676 90.1848872,14.7429504 C91.4063842,15.6531332 92.0156096,17.24047 92.0125748,19.5049608 C92.0125748,21.3326371 91.2927636,22.7463446 89.853164,23.7460836 C88.4135643,24.7458225 86.7360621,25.247215 84.8206574,25.2502611 C82.9929812,25.2502611 81.4732684,24.9901218 80.2615191,24.4698433 C79.0926314,23.9797876 78.0288205,23.2696496 77.1279681,22.3780679 L80.1162188,19.0032637 C80.9910665,20.0450392 82.3472023,20.6493908 84.1846261,20.8163185 C85.662607,20.8163185 86.6169586,20.5750653 87.0476809,20.0925587 C87.4784033,19.6100522 87.5426766,19.1281549 87.2405008,18.6468668 C86.9358881,18.1649695 85.9172632,17.840557 84.1846261,17.6736292 C82.6623033,17.5077526 81.1939412,17.0142458 79.8804486,16.2270235 C78.5754877,15.4435596 77.9230073,13.9655788 77.9230073,11.7930809 C77.9230073,9.80091384 78.6653485,8.28089643 80.1500308,7.23302872 C81.6347131,6.18516101 83.1611274,5.66153177 84.7292736,5.66214046 C86.54111,5.66396867 87.9484207,5.88328982 88.9512057,6.32010444 Z" id="Path"></path>
            <path d="M104.664652,25.0601837 C102.479361,25.0601837 100.743068,24.4509574 99.4557749,23.2325065 C98.1684816,22.0140557 97.5257488,20.4395126 97.5275765,18.5088773 L97.5275765,10.1609661 L94.6352789,10.1609661 L94.6352789,5.80287206 L97.5275765,5.80287206 L97.5275765,0.57845953 L102.944809,1.13686838e-13 L102.944809,5.80287206 L105.837107,5.80287206 L105.837107,10.1609661 L102.944809,10.1609661 L102.944809,17.7375979 C102.944809,18.7659704 103.16017,19.489121 103.590892,19.9070496 C104.021615,20.3249782 104.577533,20.5336379 105.258647,20.5330287 C105.464565,20.5330287 105.946462,20.4495648 106.704339,20.2826371 L107.842067,24.1582245 C106.918482,24.7601393 105.859343,25.060792 104.664652,25.0601837 Z" id="Path"></path>
            <polygon id="Path" points="36.1240517 34.9725849 36.1240517 29.9464752 39.8214407 29.9464752 39.8214407 30.8859008 37.1311013 30.8859008 37.1311013 31.9596606 39.1470282 31.9596606 39.1470282 32.8954308 37.1311013 32.8954308 37.1311013 34.0395561 39.8150439 34.0395561 39.8150439 34.9789817"></polygon>
            <polygon id="Path" points="40.8348872 34.9725849 40.8348872 29.9400783 41.1702658 29.9400783 43.3561666 32.4229765 45.5402397 29.9400783 45.8756183 29.9400783 45.8756183 34.9725849 44.8703963 34.9725849 44.8703963 32.0537859 43.3561666 33.7306789 41.846506 32.0537859 41.846506 34.9725849"></polygon>
            <polygon id="Path" points="46.8744433 29.9345953 47.8796653 29.9345953 47.8796653 34.9707572 46.8744433 34.9707572"></polygon>
            <polygon id="Path" points="51.2325373 34.9725849 51.2325373 29.9400783 54.7727462 29.9400783 54.7727462 30.8795039 52.2395869 30.8795039 52.2395869 31.9532637 54.1083859 31.9532637 54.1083859 32.8890339 52.2395869 32.8890339 52.2395869 34.9725849"></polygon>
            <path d="M55.9671326,34.2497389 C55.0720106,33.3896731 54.912452,32.0156665 55.5866583,30.9733601 C56.2608645,29.9310538 57.5794783,29.5131893 58.7309505,29.9769442 C59.8824227,30.440699 60.5433512,31.6558231 60.3069634,32.8744607 C60.0705757,34.0930982 59.0032634,34.9729832 57.7619107,34.9725849 C57.0895393,34.9896072 56.4400229,34.7280148 55.9671326,34.2497389 L55.9671326,34.2497389 Z M57.7646522,34.0331593 C58.1764243,34.0467005 58.5735929,33.8798229 58.8521196,33.5762402 C59.4112069,32.9311766 59.4112069,31.9732621 58.8521196,31.3281984 C58.5632353,31.0385732 58.1709791,30.875801 57.7619107,30.875801 C57.3528423,30.875801 56.9605861,31.0385732 56.6717018,31.3281984 C56.1126145,31.9732621 56.1126145,32.9311766 56.6717018,33.5762402 C56.9527648,33.8816758 57.353522,34.048658 57.7683076,34.0331593 L57.7646522,34.0331593 Z" id="Shape"></path>
            <path d="M64.060083,32.7784595 L65.3147828,34.971671 L64.1606052,34.971671 L62.9561666,32.8917755 L62.0368454,32.8917755 L62.0368454,34.971671 L61.0316235,34.971671 L61.0316235,29.9391645 L63.224835,29.9391645 C64.4000308,29.9391645 64.9873241,30.4222802 64.9867149,31.3885117 C64.9861057,32.1153177 64.6772284,32.5786336 64.060083,32.7784595 Z M62.0368454,31.9560052 L63.4459838,31.9560052 C63.8505095,31.9486945 64.05856,31.7640992 64.0701352,31.4022193 C64.0582554,31.0714099 63.8544695,30.8986945 63.456036,30.8849869 L62.0368454,30.8849869 L62.0368454,31.9560052 Z" id="Shape"></path>
            <polygon id="Path" points="68.1732684 34.9725849 68.1732684 29.9464752 71.8706574 29.9464752 71.8706574 30.8859008 69.180318 30.8859008 69.180318 31.9596606 71.1962449 31.9596606 71.1962449 32.8954308 69.180318 32.8954308 69.180318 34.0395561 71.8679159 34.0395561 71.8679159 34.9789817"></polygon>
            <polygon id="Path" points="73.6489864 29.9400783 75.0782292 33.6274151 76.5348872 29.9400783 77.608647 29.9400783 75.5982031 34.9725849 74.5929812 34.9725849 72.5761405 29.9400783"></polygon>
            <polygon id="Path" points="78.4301875 34.9725849 78.4301875 29.9464752 82.1275765 29.9464752 82.1275765 30.8859008 79.4372371 30.8859008 79.4372371 31.9596606 81.453164 31.9596606 81.453164 32.8954308 79.4372371 32.8954308 79.4372371 34.0395561 82.1211796 34.0395561 82.1211796 34.9789817"></polygon>
            <path d="M86.1713102,32.7784595 L87.4260099,34.971671 L86.2718324,34.971671 L85.0673937,32.8917755 L84.1480726,32.8917755 L84.1480726,34.971671 L83.1428507,34.971671 L83.1428507,29.9391645 L85.3360621,29.9391645 C86.5106487,29.9391645 87.097942,30.4222802 87.097942,31.3885117 C87.0973328,32.1153177 86.7884555,32.5786336 86.1713102,32.7784595 Z M84.1480726,31.9560052 L85.557211,31.9560052 C85.9623459,31.9486945 86.1703963,31.7640992 86.1813624,31.4022193 C86.1691779,31.0714099 85.9644782,30.8989991 85.5672632,30.8849869 L84.1480726,30.8849869 L84.1480726,31.9560052 Z" id="Shape"></path>
            <polygon id="Path" points="87.6535556 29.9400783 88.8351483 29.9400783 90.0021196 31.5849869 91.196506 29.9400783 92.3506836 29.9400783 90.5102136 32.4558747 90.5102136 34.9725849 89.5049916 34.9725849 89.5049916 32.4558747"></polygon>
            <path d="M93.5624329,34.2497389 C92.6663357,33.3892248 92.5063512,32.0141022 93.1809602,30.9708489 C93.8555692,29.9275956 95.175257,29.5092879 96.3276695,29.9734215 C97.4800821,30.4375551 98.1414776,31.653743 97.9047238,32.8733423 C97.6679701,34.0929416 96.5995773,34.9733378 95.357211,34.9725849 C94.684899,34.9892789 94.0355079,34.7277369 93.5624329,34.2497389 Z M95.3608663,34.0331593 C95.7726384,34.0467005 96.169807,33.8798229 96.4483337,33.5762402 C97.007421,32.9311766 97.007421,31.9732621 96.4483337,31.3281984 C96.1592932,31.0385178 95.7668858,30.875723 95.3576679,30.875723 C94.94845,30.875723 94.5560426,31.0385178 94.2670021,31.3281984 C93.7079148,31.9732621 93.7079148,32.9311766 94.2670021,33.5762402 C94.5475783,33.8807282 94.94707,34.0476003 95.3608663,34.0331593 L95.3608663,34.0331593 Z" id="Shape"></path>
            <polygon id="Path" points="98.6223546 34.9725849 98.6223546 29.9400783 98.9577332 29.9400783 102.111389 33.0937337 102.111389 29.9400783 103.11661 29.9400783 103.11661 34.9725849 102.751075 34.9725849 99.6284903 31.8536554 99.6284903 34.9744125"></polygon>
            <polygon id="Path" points="104.148334 34.9725849 104.148334 29.9464752 107.845723 29.9464752 107.845723 30.8859008 105.154469 30.8859008 105.154469 31.9596606 107.17131 31.9596606 107.17131 32.8954308 105.154469 32.8954308 105.154469 34.0395561 107.838412 34.0395561 107.838412 34.9789817"></polygon>
        </g>
    </g>
</svg>