<?xml version="1.0" encoding="UTF-8"?>
<svg width="155px" height="51px" viewBox="0 0 155 51" version="1.1" xmlns="http://www.w3.org/2000/svg" xmlns:xlink="http://www.w3.org/1999/xlink">
    <!-- Generator: sketchtool 57.1 (101010) - https://sketch.com -->
    <title>9FED5342-0784-41DE-A552-57DFAF24CC88</title>
    <desc>Created with sketchtool.</desc>
    <defs>
        <path d="M40.3508765,8.47464287 C50.2997633,21.9766163 42.2860356,34.2694187 42.2860356,34.2694187 L25.2537609,34.0082587 L40.3508765,8.47464287 Z M3.18824321,11.1828724 L20.3498769,11.1828724 L5.12340231,37.2309734 C5.12340231,37.2309734 -4.94047032,26.2700871 3.18824321,11.1828724 Z M5.3821204,8.08812603 C22.3634355,-8.7397203 37.7689221,6.02235022 37.7689221,6.02235022 L18.9295407,37.6227135 L39.8360536,37.7532935 C23.1644162,54.4440308 7.57730425,39.6884893 7.57730425,39.6884893 L26.1579675,8.08812603 L5.3821204,8.08812603 Z" id="path-1"></path>
        <polygon id="path-3" points="22.0825042 27.5145146 0.0561862533 27.5145146 0.0561862533 25.669419 11.5247152 6.52247167 0.0561862533 6.52247167 0.0561862533 0.0208928022 22.0825042 0.0208928022 22.0825042 2.03182501 10.5839221 21.0129358 22.0825042 21.0129358"></polygon>
        <path d="M17.6581634,7.60628578 C16.5553449,6.77925727 15.268941,6.36623269 13.7982985,6.36708015 C12.327656,6.36793023 11.0419054,6.7810201 9.9397402,7.60628578 C8.83692165,8.43240024 8.28551237,9.58026385 8.28551237,11.0496807 L19.3123965,11.0496807 C19.3143512,9.58026385 18.7635953,8.43240024 17.6607767,7.60628578 L17.6581634,7.60628578 Z M0.0182929499,13.804919 C0.0182929499,9.76477341 1.30469707,6.45672464 3.87685148,3.880838 C6.44900589,1.30495136 9.75746154,0.019195262 13.8009118,0.0234936072 C17.8456687,0.0234936072 21.062005,1.30926051 23.4505741,3.880838 C25.8391432,6.4524155 27.0334278,9.76039898 27.0334278,13.804919 L27.0334278,16.5601573 L8.01242105,16.5601573 C8.19535304,18.0296395 8.83888164,19.1774378 9.94235352,20.0035523 C11.0458254,20.8296667 12.3322293,21.2431483 13.8009118,21.2440624 C16.3750262,21.2440624 18.6727826,20.5093539 20.6935277,19.0398718 L25.104802,23.4456414 C23.0820968,26.1999656 19.3143512,27.577193 13.8009118,27.577193 C9.75811487,27.577193 6.45031254,26.2914369 3.87685148,23.7198594 C1.30339041,21.148282 0.0176398702,17.8433018 0.0182929499,13.804919 Z" id="path-5"></path>
        <path d="M16.9225155,0.997631303 C18.4245178,1.66933489 19.7893211,2.61277549 20.9483259,3.78029139 L16.6468109,8.62480989 C15.3976467,7.13796057 13.8355382,6.39404623 11.9611387,6.39319746 C10.1037257,6.39319746 8.86305479,6.73747167 8.23847272,7.42608537 C7.61389065,8.11469907 7.61389065,8.73926327 8.23847272,9.29990856 C8.86305479,9.85963979 10.1037257,10.3231988 11.9611387,10.6905857 C14.6979319,10.9517457 16.9401554,11.7326142 18.6865025,13.0331911 C20.4328497,14.3337681 21.3043899,16.6019429 21.2998345,19.8377156 C21.2998345,22.4493159 20.2708242,24.4693887 18.212186,25.8979341 C16.1535478,27.3264794 13.7551788,28.042972 11.0164256,28.0472811 C8.40311151,28.0472811 6.23014083,27.6755851 4.49751358,26.9321278 C2.82629921,26.2318925 1.3053504,25.2171552 0.0169865417,23.9431513 L4.28975511,19.1208314 C5.54087923,20.6094435 7.4799583,21.4730344 10.1069923,21.7115388 C12.2205101,21.7115388 13.5846601,21.3668076 14.2007489,20.6773451 C14.8168377,19.9878827 14.9083036,19.299269 14.4764535,18.6115693 C14.0406834,17.9230209 12.5844141,17.4593966 10.1069923,17.2208922 C7.93010166,16.9838895 5.8309571,16.2786921 3.95263759,15.1538106 C2.08673131,14.0342828 1.15377818,11.9224123 1.15377818,8.81806831 C1.15377818,5.97142402 2.21543703,3.79942136 4.33810142,2.30212564 C6.4607658,0.804829913 8.64353641,0.0566064358 10.8857599,0.0574544846 C13.4762075,0.0600668062 15.4884594,0.373458839 16.9225155,0.997631303 Z" id="path-7"></path>
        <path d="M14.368001,35.871637 C11.2431306,35.871637 8.76048221,35.0011238 6.92005575,33.2600352 C5.07962929,31.5189466 4.16039606,29.269053 4.16300937,26.5103543 L4.16300937,14.5818701 L0.0274397981,14.5818701 L0.0274397981,8.35450926 L4.16300937,8.35450926 L4.16300937,0.889249892 L11.9088724,0.0626784065 L11.9088724,8.35450926 L16.044442,8.35450926 L16.044442,14.5818701 L11.9088724,14.5818701 L11.9088724,25.408259 C11.9088724,26.8777412 12.2165901,27.9110209 12.8326789,28.5082285 C13.4487677,29.1053709 14.2432152,29.4036157 15.217328,29.4027016 C15.5119792,29.4027016 16.2005875,29.2834821 17.2844595,29.0449124 L18.9112475,34.5828108 C17.5908706,35.4429413 16.0764551,35.8725496 14.368001,35.871637 Z" id="path-9"></path>
        <polygon id="path-11" points="0.0561862533 7.20540514 0.0561862533 0.0235044024 5.34292069 0.0235044024 5.34292069 1.36586694 1.49612233 1.36586694 1.49612233 2.9001821 4.37860778 2.9001821 4.37860778 4.23738673 1.49612233 4.23738673 1.49612233 5.8722485 5.33377409 5.8722485 5.33377409 7.21454574"></polygon>
        <polygon id="path-13" points="0.0627195385 7.20540514 0.0627195385 0.0143638015 0.542262677 0.0143638015 3.66778635 3.56222277 6.7906967 0.0143638015 7.27023984 0.0143638015 7.27023984 7.20540514 5.83291708 7.20540514 5.83291708 3.03467951 3.66778635 5.43082276 1.5091889 3.03467951 1.5091889 7.20540514"></polygon>
        <polygon id="path-15" points="0.0339730834 7.20540514 0.0339730834 0.0143638015 5.09596251 0.0143638015 5.09596251 1.35672634 1.47390916 1.35672634 1.47390916 2.8910415 4.14602283 2.8910415 4.14602283 4.22818084 1.47390916 4.22818084 1.47390916 7.20540514"></polygon>
        <path d="M3.75533237,6.12420263 C4.34398137,6.14359376 4.91172386,5.90508937 5.31025426,5.47130256 C6.10992838,4.54960354 6.10992838,3.18079855 5.31025426,2.25903423 C4.89735063,1.84522617 4.33614143,1.61259788 3.7514124,1.61259788 C3.16668337,1.61259788 2.60547416,1.84522617 2.19257054,2.25903423 C1.39289642,3.18079855 1.39289642,4.54960354 2.19257054,5.47130256 C2.59436758,5.90770097 3.1673367,6.14633594 3.760559,6.12420263 L3.75533237,6.12420263 Z M1.18513795,6.43367726 C-0.0947326363,5.20472347 -0.322744292,3.24138767 0.640915285,1.75199204 C1.60522819,0.262661697 3.49073432,-0.334480705 5.1371222,0.328147574 C6.78351009,0.990906432 7.72822314,2.72722887 7.39045229,4.46857864 C7.05268144,6.20979783 5.52650601,7.46708749 3.7514124,7.46656517 C2.78971281,7.49091834 1.86133297,7.11713305 1.18513795,6.43367726 L1.18513795,6.43367726 Z" id="path-17"></path>
        <path d="M1.50134895,2.8949589 L3.51621413,2.8949589 C4.09440988,2.8845125 4.39232768,2.62074087 4.4086609,2.10364402 C4.39167436,1.63094437 4.10028983,1.38414814 3.53058736,1.36462643 L1.50134895,1.36462643 L1.50134895,2.8949589 Z M4.39428767,4.07017902 L6.1883278,7.20409934 L4.53801995,7.20409934 L2.81584595,4.23209824 L1.50134895,4.23209824 L1.50134895,7.20409934 L0.0640261956,7.20409934 L0.0640261956,0.0130580013 L3.20000312,0.0130580013 C4.88036409,0.0130580013 5.71989125,0.703434533 5.71923792,2.08405702 C5.71858459,3.12255986 5.27693451,3.78466582 4.39428767,4.07017902 L4.39428767,4.07017902 Z" id="path-19"></path>
        <polygon id="path-21" points="0.0182931987 7.20540514 0.0182931987 0.0235044024 5.30502764 0.0235044024 5.30502764 1.36586694 1.45822927 1.36586694 1.45822927 2.9001821 4.34071473 2.9001821 4.34071473 4.23738673 1.45822927 4.23738673 1.45822927 5.8722485 5.30110766 5.8722485 5.30110766 7.21454574"></polygon>
        <polygon id="path-23" points="1.57582841 0.0143638015 3.61944004 5.28326735 5.70225138 0.0143638015 7.23757342 0.0143638015 4.3629279 7.20540514 2.92560514 7.20540514 0.0418130257 0.0143638015"></polygon>
        <polygon id="path-25" points="0.049652968 7.20540514 0.049652968 0.0235044024 5.3363874 0.0235044024 5.3363874 1.36586694 1.48958904 1.36586694 1.48958904 2.9001821 4.3720745 2.9001821 4.3720745 4.23738673 1.48958904 4.23738673 1.48958904 5.8722485 5.32724081 5.8722485 5.32724081 7.21454574"></polygon>
        <path d="M1.49612233,2.8949589 L3.5109875,2.8949589 C4.0904899,2.8845125 4.38775438,2.62074087 4.40343427,2.10364402 C4.3857944,1.63094437 4.09310322,1.38460517 3.52536073,1.36462643 L1.49612233,1.36462643 L1.49612233,2.8949589 Z M4.38906104,4.07017902 L6.18310118,7.20409934 L4.53279332,7.20409934 L2.81061932,4.23209824 L1.49612233,4.23209824 L1.49612233,7.20409934 L0.0587995674,7.20409934 L0.0587995674,0.0130580013 L3.19477649,0.0130580013 C4.87448414,0.0130580013 5.71401129,0.703434533 5.71401129,2.08405702 C5.71335796,3.12255986 5.27170788,3.78466582 4.38906104,4.07017902 L4.38906104,4.07017902 Z" id="path-27"></path>
        <polygon id="path-29" points="0.0405063686 0.0143638015 1.73001394 0.0143638015 3.398615 2.36480404 5.10641576 0.0143638015 6.75672362 0.0143638015 4.12511632 3.60923157 4.12511632 7.20540514 2.68779356 7.20540514 2.68779356 3.60923157"></polygon>
        <path d="M3.74357246,6.12420263 C4.33222146,6.14359376 4.89996395,5.90508937 5.29849435,5.47130256 C6.09816847,4.54960354 6.09816847,3.18079855 5.29849435,2.25903423 C4.88493739,1.84509559 4.32438152,1.6124673 3.73899916,1.6124673 C3.1536168,1.6124673 2.59306092,1.84509559 2.17950396,2.25903423 C1.37982985,3.18079855 1.37982985,4.54960354 2.17950396,5.47130256 C2.58064768,5.90639517 3.15165681,6.14483427 3.74357246,6.12420263 Z M1.17207138,6.43367726 C-0.109105864,5.20407057 -0.337770848,3.23910252 0.626542057,1.74840109 C1.59085496,0.257634367 3.47832108,-0.340030355 5.12601562,0.323120243 C6.77371016,0.986401422 7.71972987,2.72422553 7.38065236,4.46694639 C7.04222819,6.20966725 5.51474609,7.4676445 3.73834583,7.46656517 C2.77729957,7.49046131 1.8482664,7.11667602 1.17207138,6.43367726 L1.17207138,6.43367726 Z" id="path-31"></path>
        <polygon id="path-33" points="0.0444263398 7.20540514 0.0444263398 0.0143638015 0.523969478 0.0143638015 5.03324297 4.52068007 5.03324297 0.0143638015 6.47056573 0.0143638015 6.47056573 7.20540514 5.94790291 7.20540514 1.48305576 2.74870928 1.48305576 7.20808203"></polygon>
        <polygon id="path-35" points="0.0405063686 7.20540514 0.0405063686 0.0235044024 5.32724081 0.0235044024 5.32724081 1.36586694 1.47913578 1.36586694 1.47913578 2.9001821 4.3629279 2.9001821 4.3629279 4.23738673 1.47913578 4.23738673 1.47913578 5.8722485 5.31678755 5.8722485 5.31678755 7.21454574"></polygon>
    </defs>
    <g id="Page-1" stroke="none" stroke-width="1" fill="none" fill-rule="evenodd">
        <g id="Mobile-entered" transform="translate(-1003.000000, -96.000000)">
            <g id="Group" transform="translate(1003.000000, 96.000000)">
                <g id="Group-3" transform="translate(0.000000, 4.243850)">
                    <mask id="mask-2" fill="white">
                        <use xlink:href="#path-1"></use>
                    </mask>
                    <g id="Clip-2"></g>
                    <polygon id="Fill-1" fill="#1EBA68" mask="url(#mask-2)" points="0.0130665705 45.7147569 45.3357731 45.7147569 45.3357731 0.0300334031 0.0130665705 0.0300334031"></polygon>
                </g>
                <g id="Group-6" transform="translate(51.612954, 8.357121)">
                    <mask id="mask-4" fill="white">
                        <use xlink:href="#path-3"></use>
                    </mask>
                    <g id="Clip-5"></g>
                    <polygon id="Fill-4" fill="#1EBA68" mask="url(#mask-4)" points="0.049652968 27.5145146 22.0877308 27.5145146 22.0877308 0.0143638015 0.049652968 0.0143638015"></polygon>
                </g>
                <g id="Group-9" transform="translate(78.530089, 8.291831)">
                    <mask id="mask-6" fill="white">
                        <use xlink:href="#path-5"></use>
                    </mask>
                    <g id="Clip-8"></g>
                    <polygon id="Fill-7" fill="#1EBA68" mask="url(#mask-6)" points="0.0156798846 27.5798046 27.0399611 27.5798046 27.0399611 0.0169754018 0.0156798846 0.0169754018"></polygon>
                </g>
                <g id="Group-12" transform="translate(110.281855, 8.095961)">
                    <mask id="mask-8" fill="white">
                        <use xlink:href="#path-7"></use>
                    </mask>
                    <g id="Clip-11"></g>
                    <polygon id="Fill-10" fill="#1EBA68" mask="url(#mask-8)" points="0.0156798846 28.0498927 21.3011233 28.0498927 21.3011233 0.0561494058 0.0156798846 0.0561494058"></polygon>
                </g>
                <g id="Group-15" transform="translate(135.304338, 0.000000)">
                    <mask id="mask-10" fill="white">
                        <use xlink:href="#path-9"></use>
                    </mask>
                    <g id="Clip-14"></g>
                    <polygon id="Fill-13" fill="#1EBA68" mask="url(#mask-10)" points="0.0261331411 35.8716355 18.9125542 35.8716355 18.9125542 0.0587610061 0.0261331411 0.0587610061"></polygon>
                </g>
                <polyline id="Fill-16" fill="#1EBA68" points="51.6782864 50.0030162 51.6782864 42.8302444 56.9702475 42.8302444 56.9702475 44.1709007 53.1196461 44.1709007 53.1196461 45.7032655 56.0049813 45.7032655 56.0049813 47.0387704 53.1196461 47.0387704 53.1196461 48.6715541 56.9610919 48.6715541 56.9610919 50.0121452 51.6782864 50.0030162"></polyline>
                <g id="Group-19" transform="translate(51.612954, 42.830244)">
                    <mask id="mask-12" fill="white">
                        <use xlink:href="#path-11"></use>
                    </mask>
                    <g id="Clip-18"></g>
                    <polygon id="Fill-17" fill="#1EBA68" mask="url(#mask-12)" points="0.0561862533 7.21454574 5.34292069 7.21454574 5.34292069 0.0235044024 0.0561862533 0.0235044024"></polygon>
                </g>
                <polyline id="Fill-20" fill="#1EBA68" points="58.4075703 50.0121452 58.4075703 42.8302444 58.8857224 42.8302444 62.00218 46.3735937 65.1160319 42.8302444 65.5941841 42.8302444 65.5941841 50.0121452 64.1610305 50.0121452 64.1610305 45.846721 62.00218 48.2398185 59.8498439 45.846721 59.8498439 50.0121452 58.4075703 50.0121452"></polyline>
                <g id="Group-23" transform="translate(58.342237, 42.830244)">
                    <mask id="mask-14" fill="white">
                        <use xlink:href="#path-13"></use>
                    </mask>
                    <g id="Clip-22"></g>
                    <polygon id="Fill-21" fill="#1EBA68" mask="url(#mask-14)" points="0.0627195385 7.20540514 7.27023984 7.20540514 7.27023984 0.0143638015 0.0627195385 0.0143638015"></polygon>
                </g>
                <polygon id="Fill-24" fill="#1EBA68" points="67.0315068 50.0121452 68.4688296 50.0121452 68.4688296 42.8302444 67.0315068 42.8302444"></polygon>
                <polygon id="Fill-25" fill="#1EBA68" points="67.0315068 50.0121452 68.4688296 50.0121452 68.4688296 42.8302444 67.0315068 42.8302444"></polygon>
                <polyline id="Fill-27" fill="#1EBA68" points="73.3034607 50.0121452 73.3034607 42.8302444 78.3340903 42.8302444 78.3340903 44.1709007 74.7344761 44.1709007 74.7344761 45.7032655 77.3900357 45.7032655 77.3900357 47.0387052 74.7344761 47.0387052 74.7344761 50.0121452 73.3034607 50.0121452"></polyline>
                <g id="Group-30" transform="translate(73.238128, 42.830244)">
                    <mask id="mask-16" fill="white">
                        <use xlink:href="#path-15"></use>
                    </mask>
                    <g id="Clip-29"></g>
                    <polygon id="Fill-28" fill="#1EBA68" mask="url(#mask-16)" points="0.0339730834 7.20540514 5.09596251 7.20540514 5.09596251 0.0143638015 0.0339730834 0.0143638015"></polygon>
                </g>
                <path d="M82.6159977,48.674153 C83.2023373,48.6934649 83.7678525,48.4559351 84.1648194,48.023921 C84.9613562,47.1059885 84.9613562,45.7427771 84.1648194,44.8247796 C83.7535356,44.4126625 83.1945281,44.1809849 82.6120931,44.1809849 C82.0296581,44.1809849 81.4706506,44.4126625 81.0593668,44.8247796 C80.26283,45.7427771 80.26283,47.1059885 81.0593668,48.023921 C81.4595876,48.4585361 82.0303088,48.6961959 82.6212038,48.674153 L82.6159977,48.674153 Z M80.0558866,48.982363 C78.7810371,47.7584313 78.55392,45.8031186 79.513799,44.3198094 C80.4743287,42.8365652 82.3524377,42.241863 83.9923665,42.9017835 C85.6322954,43.561834 86.5733022,45.2910609 86.2368565,47.0252947 C85.9004107,48.7593984 84.3802227,50.0115502 82.6120931,50.01103 C81.6541664,50.0352836 80.7294288,49.6630258 80.0558866,48.982363 L80.0558866,48.982363 Z" id="Fill-31" fill="#1EBA68"></path>
                <g id="Group-34" transform="translate(78.856753, 42.569084)">
                    <mask id="mask-18" fill="white">
                        <use xlink:href="#path-17"></use>
                    </mask>
                    <g id="Clip-33"></g>
                    <polygon id="Fill-32" fill="#1EBA68" mask="url(#mask-18)" points="-0.322744292 7.49091834 7.72822314 7.49091834 7.72822314 -0.334480705 -0.322744292 -0.334480705"></polygon>
                </g>
                <path d="M88.7260005,45.7084821 L90.7464542,45.7084821 C91.3262536,45.698049 91.6249977,45.4346126 91.6413763,44.9181731 C91.6243426,44.4460743 91.3321499,44.1995918 90.7608673,44.1800949 L88.7260005,44.1800949 L88.7260005,45.7084821 Z M91.6269632,46.8822084 L93.4259793,50.0121452 L91.7710941,50.0121452 L90.0441434,47.0439218 L88.7260005,47.0439218 L88.7260005,50.0121452 L87.2846911,50.0121452 L87.2846911,42.8302444 L90.4293661,42.8302444 C92.1143878,42.8302444 92.9562435,43.5197434 92.9555883,44.898611 C92.9549332,45.9357938 92.5120581,46.5970581 91.6269632,46.8822084 L91.6269632,46.8822084 Z" id="Fill-35" fill="#1EBA68"></path>
                <g id="Group-38" transform="translate(87.219358, 42.830244)">
                    <mask id="mask-20" fill="white">
                        <use xlink:href="#path-19"></use>
                    </mask>
                    <g id="Clip-37"></g>
                    <polygon id="Fill-36" fill="#1EBA68" mask="url(#mask-20)" points="0.0640261956 7.20409934 6.1883278 7.20409934 6.1883278 0.0130580013 0.0640261956 0.0130580013"></polygon>
                </g>
                <polyline id="Fill-39" fill="#1EBA68" points="97.4766162 50.0030162 97.4766162 42.8302444 102.768577 42.8302444 102.768577 44.1709007 98.9179758 44.1709007 98.9179758 45.7032655 101.803311 45.7032655 101.803311 47.0387704 98.9179758 47.0387704 98.9179758 48.6715541 102.764653 48.6715541 102.764653 50.0121452 97.4766162 50.0030162"></polyline>
                <g id="Group-42" transform="translate(97.476616, 42.830244)">
                    <mask id="mask-22" fill="white">
                        <use xlink:href="#path-21"></use>
                    </mask>
                    <g id="Clip-41"></g>
                    <polygon id="Fill-40" fill="#1EBA68" mask="url(#mask-22)" points="0.0182931987 7.21454574 5.30502764 7.21454574 5.30502764 0.0235044024 0.0182931987 0.0235044024"></polygon>
                </g>
                <polyline id="Fill-43" fill="#1EBA68" points="105.345968 42.8302444 107.386982 48.0924506 109.467146 42.8302444 111.000517 42.8302444 108.129525 50.0121452 106.694029 50.0121452 103.813903 42.8302444 105.345968 42.8302444"></polyline>
                <g id="Group-46" transform="translate(103.748570, 42.830244)">
                    <mask id="mask-24" fill="white">
                        <use xlink:href="#path-23"></use>
                    </mask>
                    <g id="Clip-45"></g>
                    <polygon id="Fill-44" fill="#1EBA68" mask="url(#mask-24)" points="0.0418130257 7.20540514 7.23757342 7.20540514 7.23757342 0.0143638015 0.0418130257 0.0143638015"></polygon>
                </g>
                <polyline id="Fill-47" fill="#1EBA68" points="112.176508 50.0030162 112.176508 42.8302444 117.468469 42.8302444 117.468469 44.1709007 113.617868 44.1709007 113.617868 45.7032655 116.503203 45.7032655 116.503203 47.0387704 113.617868 47.0387704 113.617868 48.6715541 117.459313 48.6715541 117.459313 50.0121452 112.176508 50.0030162"></polyline>
                <g id="Group-50" transform="translate(112.111175, 42.830244)">
                    <mask id="mask-26" fill="white">
                        <use xlink:href="#path-25"></use>
                    </mask>
                    <g id="Clip-49"></g>
                    <polygon id="Fill-48" fill="#1EBA68" mask="url(#mask-26)" points="0.049652968 7.21454574 5.3363874 7.21454574 5.3363874 0.0235044024 0.049652968 0.0235044024"></polygon>
                </g>
                <path d="M120.347101,45.7084821 L122.367555,45.7084821 C122.948665,45.698049 123.246754,45.4346126 123.262477,44.9181731 C123.244788,44.4460743 122.951285,44.2000482 122.381968,44.1800949 L120.347101,44.1800949 L120.347101,45.7084821 Z M123.248064,46.8822084 L125.04708,50.0121452 L123.392195,50.0121452 L121.665244,47.0439218 L120.347101,47.0439218 L120.347101,50.0121452 L118.905792,50.0121452 L118.905792,42.8302444 L122.050467,42.8302444 C123.734833,42.8302444 124.576689,43.5197434 124.576689,44.898611 C124.576034,45.9357938 124.133159,46.5970581 123.248064,46.8822084 L123.248064,46.8822084 Z" id="Fill-51" fill="#1EBA68"></path>
                <g id="Group-54" transform="translate(118.840459, 42.830244)">
                    <mask id="mask-28" fill="white">
                        <use xlink:href="#path-27"></use>
                    </mask>
                    <g id="Clip-53"></g>
                    <polygon id="Fill-52" fill="#1EBA68" mask="url(#mask-28)" points="0.0587995674 7.20409934 6.18310118 7.20409934 6.18310118 0.0130580013 0.0587995674 0.0130580013"></polygon>
                </g>
                <polyline id="Fill-55" fill="#1EBA68" points="125.373744 42.8302444 127.066539 42.8302444 128.738386 45.177697 130.449509 42.8302444 132.103028 42.8302444 129.466301 46.4205427 129.466301 50.0121452 128.026182 50.0121452 128.026182 46.4205427 125.373744 42.8302444"></polyline>
                <g id="Group-58" transform="translate(125.308411, 42.830244)">
                    <mask id="mask-30" fill="white">
                        <use xlink:href="#path-29"></use>
                    </mask>
                    <g id="Clip-57"></g>
                    <polygon id="Fill-56" fill="#1EBA68" mask="url(#mask-30)" points="0.0405063686 7.20540514 6.75672362 7.20540514 6.75672362 0.0143638015 0.0405063686 0.0143638015"></polygon>
                </g>
                <path d="M136.352513,48.7285868 C136.943631,48.748056 137.513754,48.5085918 137.913956,48.0730592 C138.716983,47.147651 138.716983,45.7733374 137.913956,44.8478636 C137.498664,44.4322591 136.935758,44.1986947 136.347921,44.1986947 C135.760084,44.1986947 135.197177,44.4322591 134.781886,44.8478636 C133.978858,45.7733374 133.978858,47.147651 134.781886,48.0730592 C135.184712,48.5099028 135.758115,48.7493015 136.352513,48.7285868 Z M133.770229,49.0393069 C132.483679,47.8047518 132.254055,45.831876 133.222412,44.3351755 C134.190769,42.8384094 136.08615,42.2383395 137.740754,42.9041588 C139.395358,43.5701093 140.345344,45.314927 140.004845,47.0646612 C139.665002,48.8143954 138.131114,50.0774352 136.347265,50.0763515 C135.382188,50.1003438 134.449259,49.7250543 133.770229,49.0393069 L133.770229,49.0393069 Z" id="Fill-59" fill="#1EBA68"></path>
                <g id="Group-62" transform="translate(132.625691, 42.569084)">
                    <mask id="mask-32" fill="white">
                        <use xlink:href="#path-31"></use>
                    </mask>
                    <g id="Clip-61"></g>
                    <polygon id="Fill-60" fill="#1EBA68" mask="url(#mask-32)" points="-0.337770848 7.49046131 7.71972987 7.49046131 7.71972987 -0.340030355 -0.337770848 -0.340030355"></polygon>
                </g>
                <polyline id="Fill-63" fill="#1EBA68" points="141.053629 50.0094727 141.053629 42.8302444 141.531417 42.8302444 146.024186 47.3291579 146.024186 42.8302444 147.456248 42.8302444 147.456248 50.0094727 146.935499 50.0094727 142.486993 45.5600981 142.486993 50.0121452 141.053629 50.0094727"></polyline>
                <g id="Group-66" transform="translate(140.988296, 42.830244)">
                    <mask id="mask-34" fill="white">
                        <use xlink:href="#path-33"></use>
                    </mask>
                    <g id="Clip-65"></g>
                    <polygon id="Fill-64" fill="#1EBA68" mask="url(#mask-34)" points="0.0444263398 7.20808203 6.47056573 7.20808203 6.47056573 0.0143638015 0.0444263398 0.0143638015"></polygon>
                </g>
                <polyline id="Fill-67" fill="#1EBA68" points="148.958904 50.0030162 148.958904 42.8302444 154.250865 42.8302444 154.250865 44.1709007 150.398956 44.1709007 150.398956 45.7032655 153.285599 45.7032655 153.285599 47.0387704 150.398956 47.0387704 150.398956 48.6715541 154.240402 48.6715541 154.240402 50.0121452 148.958904 50.0030162"></polyline>
                <g id="Group-70" transform="translate(148.893571, 42.830244)">
                    <mask id="mask-36" fill="white">
                        <use xlink:href="#path-35"></use>
                    </mask>
                    <g id="Clip-69"></g>
                    <polygon id="Fill-68" fill="#1EBA68" mask="url(#mask-36)" points="0.0405063686 7.21454574 5.32724081 7.21454574 5.32724081 0.0235044024 0.0405063686 0.0235044024"></polygon>
                </g>
            </g>
        </g>
    </g>
</svg>